<svg xmlns="http://www.w3.org/2000/svg" width="179.224" height="37.83" viewBox="0 0 179.224 37.83"><path d="M179.722,6.982a7.42,7.42,0,0,1,1.968.271,5.647,5.647,0,0,1,1.793.844,4.434,4.434,0,0,1,1.3,1.469,4.279,4.279,0,0,1,.5,2.124,4.33,4.33,0,0,1-.5,2.135,4.385,4.385,0,0,1-1.3,1.447,5.329,5.329,0,0,1-1.793.811,7.89,7.89,0,0,1-3.936,0,5.439,5.439,0,0,1-1.793-.811,4.385,4.385,0,0,1-1.3-1.447,4.265,4.265,0,0,1-.5-2.135,4.272,4.272,0,0,1,.5-2.124,4.461,4.461,0,0,1,1.3-1.469,5.619,5.619,0,0,1,1.793-.844,7.421,7.421,0,0,1,1.968-.271Zm0,2.209a3.418,3.418,0,0,0-1.1.178,2.875,2.875,0,0,0-.916.5,2.253,2.253,0,0,0-.614.784,2.609,2.609,0,0,0,0,2.094,2.253,2.253,0,0,0,.614.784,2.9,2.9,0,0,0,.916.5,3.418,3.418,0,0,0,1.1.178,3.46,3.46,0,0,0,1.116-.178,2.956,2.956,0,0,0,.907-.5,2.253,2.253,0,0,0,.614-.784,2.61,2.61,0,0,0,0-2.094,2.253,2.253,0,0,0-.614-.784,2.924,2.924,0,0,0-.907-.5A3.389,3.389,0,0,0,179.722,9.191Zm8.125-1.458c0-.154-.047-.249-.134-.291s-.156-.069-.2-.082V7.111H193a8.5,8.5,0,0,1,1.489.126,3.6,3.6,0,0,1,1.261.458,2.526,2.526,0,0,1,.874.907,2.941,2.941,0,0,1,.334,1.489,2.929,2.929,0,0,1-.334,1.48,2.529,2.529,0,0,1-.874.916,3.523,3.523,0,0,1-1.261.458A8.794,8.794,0,0,1,193,13.07h-2.355v2.582a.275.275,0,0,0,.156.291,1.3,1.3,0,0,0,.323.082v.249h-3.6v-.249q.062-.021.2-.082c.09-.041.134-.14.134-.291Zm4.77,3.583a2.113,2.113,0,0,0,1.25-.282,1.112,1.112,0,0,0,.376-.948,1.167,1.167,0,0,0-.334-.938,1.707,1.707,0,0,0-1.124-.291h-2.146v2.459Zm6.9-3.583a.271.271,0,0,0-.167-.291,1.6,1.6,0,0,0-.417-.082V7.111H202.6V7.36a1.575,1.575,0,0,0-.417.082.273.273,0,0,0-.167.291v4.312q.646-.707,1.324-1.447t1.22-1.365c.362-.417.655-.765.885-1.042a2.524,2.524,0,0,0,.343-.458c0-.154-.049-.249-.145-.291a1.19,1.19,0,0,0-.291-.082V7.111h4.959V7.36a1.514,1.514,0,0,0-.395.082.273.273,0,0,0-.167.291V15.65a.275.275,0,0,0,.156.291,1.349,1.349,0,0,0,.365.082v.249H206.7v-.249a1.4,1.4,0,0,0,.387-.082.277.277,0,0,0,.156-.291V9.983l-.041-.041q-.876,1.04-1.771,2.009T203.821,13.7q-.72.781-1.176,1.324c-.307.362-.458.6-.458.729s.074.2.219.23a2.112,2.112,0,0,0,.387.041v.249h-3.854v-.249a1.6,1.6,0,0,0,.417-.082.277.277,0,0,0,.167-.291V7.733Zm16.749,2.459q0,.395.313.395h1.584A2.585,2.585,0,0,0,219.3,10.4a.691.691,0,0,0,.365-.674.762.762,0,0,0-.417-.611,3.254,3.254,0,0,0-1.626-.274,7.566,7.566,0,0,0-1.458.126,5.783,5.783,0,0,0-1.1.313,2.519,2.519,0,0,0-.707.406.587.587,0,0,0-.249.406.674.674,0,0,0,.011.126.936.936,0,0,1,.011.126l-.167.167-1.48-2.333.23-.145a.319.319,0,0,0,.249.126,1.336,1.336,0,0,0,.5-.178,9.427,9.427,0,0,1,.948-.395,11.39,11.39,0,0,1,1.417-.406,8.681,8.681,0,0,1,1.927-.186,9.11,9.11,0,0,1,1.823.167,4.918,4.918,0,0,1,1.417.5,2.578,2.578,0,0,1,.916.822,2.025,2.025,0,0,1,.323,1.135,1.757,1.757,0,0,1-.1.625,1.57,1.57,0,0,1-.271.469,3.077,3.077,0,0,1-.354.354c-.126.1-.236.192-.334.26V11.4a2.927,2.927,0,0,1,1.124.844,2.068,2.068,0,0,1,.395,1.3,1.983,1.983,0,0,1-.354,1.157,2.989,2.989,0,0,1-.979.874,5.277,5.277,0,0,1-1.469.562,7.884,7.884,0,0,1-1.8.2,15.14,15.14,0,0,1-2.135-.145,10.093,10.093,0,0,1-1.656-.354c-.4-.126-.729-.233-.979-.323a2.114,2.114,0,0,0-.458-.134.405.405,0,0,0-.167.03.478.478,0,0,0-.145.156l-.271-.082,1.187-2.98.249.1a.762.762,0,0,1-.011.156.762.762,0,0,0-.011.156.716.716,0,0,0,.282.51,2.65,2.65,0,0,0,.792.469,6.179,6.179,0,0,0,1.239.343,9.032,9.032,0,0,0,1.645.134q2.418,0,2.418-1.083a.828.828,0,0,0-.395-.666,2.451,2.451,0,0,0-1.4-.291H216.6a.338.338,0,0,0-.249.082.613.613,0,0,0-.082.395h-.249V10.192h.249Zm13.9-3.207a7.42,7.42,0,0,1,1.968.271,5.647,5.647,0,0,1,1.793.844,4.434,4.434,0,0,1,1.3,1.469,4.279,4.279,0,0,1,.5,2.124,4.33,4.33,0,0,1-.5,2.135,4.385,4.385,0,0,1-1.3,1.447,5.329,5.329,0,0,1-1.793.811,7.889,7.889,0,0,1-3.936,0,5.439,5.439,0,0,1-1.793-.811,4.385,4.385,0,0,1-1.3-1.447,4.265,4.265,0,0,1-.5-2.135,4.272,4.272,0,0,1,.5-2.124A4.461,4.461,0,0,1,226.4,8.1a5.62,5.62,0,0,1,1.793-.844A7.421,7.421,0,0,1,230.159,6.984Zm0,2.209a3.418,3.418,0,0,0-1.1.178,2.875,2.875,0,0,0-.916.5,2.252,2.252,0,0,0-.614.784,2.61,2.61,0,0,0,0,2.094,2.252,2.252,0,0,0,.614.784,2.905,2.905,0,0,0,.916.5,3.418,3.418,0,0,0,1.1.178,3.461,3.461,0,0,0,1.116-.178,2.955,2.955,0,0,0,.907-.5,2.252,2.252,0,0,0,.614-.784,2.609,2.609,0,0,0,0-2.094,2.252,2.252,0,0,0-.614-.784,2.924,2.924,0,0,0-.907-.5A3.389,3.389,0,0,0,230.159,9.194Zm11.02,6.458a.271.271,0,0,0,.167.291,1.575,1.575,0,0,0,.417.082v.249H237.8v-.249a1.6,1.6,0,0,0,.417-.082.277.277,0,0,0,.167-.291V7.733a.271.271,0,0,0-.167-.291,1.6,1.6,0,0,0-.417-.082V7.111h3.958V7.36a1.575,1.575,0,0,0-.417.082.273.273,0,0,0-.167.291v2.626h4.605V7.733a.271.271,0,0,0-.167-.291,1.6,1.6,0,0,0-.417-.082V7.111h3.958V7.36a1.6,1.6,0,0,0-.417.082.273.273,0,0,0-.167.291V15.65a.271.271,0,0,0,.167.291,1.575,1.575,0,0,0,.417.082v.249H245.2v-.249a1.6,1.6,0,0,0,.417-.082.277.277,0,0,0,.167-.291V12.483h-4.605V15.65ZM260.6,7.111a.45.45,0,0,0,.249-.082c.082-.055.126-.181.126-.376h.249V9.7h-.249c0-.195-.041-.318-.126-.376a.45.45,0,0,0-.249-.082h-2.98v6.417a.275.275,0,0,0,.156.291,1.3,1.3,0,0,0,.323.082v.249h-3.75v-.249a1.335,1.335,0,0,0,.323-.082.277.277,0,0,0,.156-.291V9.232h-2.98a.45.45,0,0,0-.249.082c-.082.055-.126.181-.126.376h-.249V6.65h.249c0,.195.041.321.126.376a.45.45,0,0,0,.249.082h8.75Zm3.251.625a.271.271,0,0,0-.167-.291,1.6,1.6,0,0,0-.417-.082V7.113h3.668v.249a1.575,1.575,0,0,0-.417.082.273.273,0,0,0-.167.291v4.312q.646-.707,1.324-1.447t1.22-1.365c.362-.417.655-.765.885-1.042a2.523,2.523,0,0,0,.343-.458c0-.154-.049-.249-.145-.291a1.19,1.19,0,0,0-.291-.082V7.113h4.959v.249a1.515,1.515,0,0,0-.395.082.273.273,0,0,0-.167.291v7.917a.275.275,0,0,0,.156.291,1.348,1.348,0,0,0,.365.082v.249h-3.564v-.249a1.4,1.4,0,0,0,.387-.082.277.277,0,0,0,.156-.291V9.983l-.041-.041q-.876,1.04-1.771,2.009T268.153,13.7q-.72.781-1.176,1.324c-.307.362-.458.6-.458.729s.074.2.219.23a2.113,2.113,0,0,0,.387.041v.249h-3.854v-.249a1.6,1.6,0,0,0,.417-.082.277.277,0,0,0,.167-.291V7.733Z" transform="translate(-126.418 -4.827)" fill="#d5d5d5"/><path d="M15.477,1.277a2.306,2.306,0,0,0-1.1.285.916.916,0,0,0-.532.853,2.611,2.611,0,0,0,.389,1.206,9.854,9.854,0,0,0,1.031,1.491l5.822,7.314L26.982,4.97q.781-1,1.349-1.705A2.091,2.091,0,0,0,28.9,2.2c0-.614-.639-.924-1.916-.924V0H41.4V1.277a10.8,10.8,0,0,0-2.519.214,2.572,2.572,0,0,0-1.384.924L25.209,17.61,36.993,32.662q.284.428.674,1a6.64,6.64,0,0,0,.959,1.1,6.828,6.828,0,0,0,1.242.924,2.992,2.992,0,0,0,1.527.389v1.277H27.125V36.07a1,1,0,0,0,1.135-1.135A2.022,2.022,0,0,0,27.8,33.8c-.31-.425-.674-.9-1.1-1.42l-6.532-8.52-7.029,8.8c-.238.332-.532.721-.888,1.171a2.079,2.079,0,0,0-.532,1.242q0,1,1.349,1V37.35H0V36.072a6.032,6.032,0,0,0,2.094-.285A3.808,3.808,0,0,0,3.621,34.51L16.045,18.676,4.545,4.046a8.854,8.854,0,0,0-2.2-2.166A4.451,4.451,0,0,0,0,1.277V0H15.477Z" fill="#d5d5d5"/><g transform="translate(47.051 21.908)"><path d="M171.651,81.715h.337l8.9-.005c1.705.074,3.673.09,4.781,2.078a5.673,5.673,0,0,1-.055,4.627c-1.1,1.913-3.747,1.82-4.91,1.859h-5.6V95.43a3.088,3.088,0,0,0,.022.6.407.407,0,0,0,.469.337v.244H171.64v-.26c.28,0,.488,0,.488-.395a3.748,3.748,0,0,0,.019-.655l-.005-12.5v-.562c0-.206-.186-.167-.488-.28v-.244ZM175.1,84.15v3.712h4.967c.694.016,2.4.222,2.961-.754a2.916,2.916,0,0,0,.055-2.212c-.543-.957-2.585-.748-2.848-.748H175.1Z" transform="translate(-171.64 -81.219)" fill="#929292"/><path d="M247.667,93.716h.263v3.41h-.318a.424.424,0,0,0-.244-.469,1.365,1.365,0,0,0-.543-.055l-12.706-.011.019-.263c.206,0,.395-.019.488-.282a2.485,2.485,0,0,0,.019-.543L234.641,82.8a2.75,2.75,0,0,0,0-.562.466.466,0,0,0-.488-.263V81.69h4.01v.3a.552.552,0,0,0-.5.282,1.724,1.724,0,0,0-.055.62l.005,11.319,9.219-.005s.6.038.748-.186c.038-.093.055-.263.093-.3Z" transform="translate(-216.992 -81.205)" fill="#929292"/><path d="M299.858,81.783h4.422v.167c-.225.17-.411.132-.45.45a3.339,3.339,0,0,0,.225.562l6.1,12.684a2.134,2.134,0,0,0,.244.524.71.71,0,0,0,.524.186v.282H306.87V96.4l.376-.225-1.65-3.635h-6.9l-1.349,3c-.112.318-.132.186-.132.543l.318.206v.356H293.92v-.3a.787.787,0,0,0,.488-.263,2.321,2.321,0,0,0,.225-.488l5.409-12.519s.225-.581.225-.6c.055-.244-.074-.318-.411-.45V81.78Zm-.238,8.451h4.759l-2.456-5.192Z" transform="translate(-260.4 -81.27)" fill="#929292"/><path d="M365.35,79.92h.3v.186a.422.422,0,0,0,.395.263,1.183,1.183,0,0,0,.45.019l12.388-.005h.524c.337-.132.244-.112.337-.45h.282v3.41h-.206a.461.461,0,0,0-.318-.43,1.836,1.836,0,0,0-.488-.093c-.376-.019-.825-.019-1.031-.019h-3.747l.005,11.3a3.1,3.1,0,0,0,.019.6c.186.3.244.337.488.337l-.019.244h-3.86v-.26c.244,0,.263.019.392-.3,0-.186.019-.337.019-.524l-.005-11.393h-4.833a5.108,5.108,0,0,0-.524.019c-.206.093-.263.17-.263.507h-.3v-3.41Z" transform="translate(-312.249 -79.92)" fill="#929292"/><path d="M428.38,81.585h4.328v.241c-.674.225-.655.151-.655.88l.005,12.555c0,.655.038.732.806.918v.3h-4.348V96.2c.787-.282.674-.206.674-.938l-.005-11.768V82.405c-.038-.318-.356-.376-.806-.562V81.58Z" transform="translate(-358.001 -81.125)" fill="#929292"/><path d="M454.155,81.52a1.76,1.76,0,0,1,.3.019h4.03v.315l-.488.132v.151l9.057,9.7-.005-9.164a2.944,2.944,0,0,0-.019-.581c-.058-.167-.318-.263-.524-.263v-.3h3.635v.3a.55.55,0,0,0-.488.282,2.657,2.657,0,0,0-.019.562l.005,12.536a2.2,2.2,0,0,0,.038.6c.151.376.244.282.507.411v.225h-3.821v-.28l.43-.112c.074-.206-.038-.318-.282-.543l-9.263-9.833.005,9.652c0,.038,0,.469.019.543.112.225.132.225.488.356l-.038.206h-3.58v-.241c.186-.058.411-.038.5-.318a1.457,1.457,0,0,0,.055-.562l-.005-12.5a1.742,1.742,0,0,0-.058-.62c-.151-.356-.263-.3-.507-.392l.019-.282Z" transform="translate(-376.692 -81.081)" fill="#929292"/><path d="M522.17,81.528h4.049v.28c-.263,0-.43.019-.543.318a3.141,3.141,0,0,0-.019.6v7.815c.041,1.275-.239,2.193,1.28,3.092a9.234,9.234,0,0,0,6.82,0c1.31-.77,1.066-2.363,1.066-3.166v-7.7a2.782,2.782,0,0,0-.06-.62c-.206-.356-.282-.225-.562-.337v-.282h4.049v.315c-.28,0-.376-.132-.5.3a3.753,3.753,0,0,0-.038.655v7.552c.079,1.875.025,3.841-2.092,5.247-2.209,1.464-8.262,1.409-10.568.079-2.286-1.31-2.212-3.147-2.215-4.91v-8.04c0-.019-.1-.524-.134-.6a.491.491,0,0,0-.526-.318V81.52Z" transform="translate(-426.08 -81.081)" fill="#929292"/><path d="M590.582,81.5h4.5v.26a.688.688,0,0,0-.45.244c-.151.225-.055.225.019.488l.543,1.012,3.939,7.549,4.644-8.7a.919.919,0,0,0,.112-.337l-.524-.28V81.49h4.479v.3c-.356,0-.376.074-.543.488l-.055.732.006,12.163a2.272,2.272,0,0,0,.038.636.508.508,0,0,0,.562.318v.263H603.9v-.222a.468.468,0,0,0,.45-.337,1.264,1.264,0,0,0,.055-.543l-.006-8.863L599.045,96.4H598.8l-5.252-10.08.006,8.958a2.065,2.065,0,0,0,.057.581.5.5,0,0,0,.562.356V96.4H590.5v-.206a.488.488,0,0,0,.523-.376c.039-.093.019-.524.039-.655l-.006-12.574a1.73,1.73,0,0,0-.038-.543.428.428,0,0,0-.43-.263V81.5Z" transform="translate(-475.679 -81.06)" fill="#929292"/></g><path d="M136.381,1.5H0v-3H136.381Z" transform="translate(37.665 16.555)" fill="#ae0428"/></svg>