<svg xmlns="http://www.w3.org/2000/svg" width="52" height="52" viewBox="0 0 52 52">
  <g id="bus_icon" data-name="bus icon" transform="translate(-378 -6051)">
    <path id="_20868721371547464164" data-name="20868721371547464164" d="M31.771,8.333H31.25V5.208C31.25,2.292,24.792,0,16.667,0S2.083,2.292,2.083,5.208V8.333H1.563A1.562,1.562,0,0,0,0,9.9V15.1a1.563,1.563,0,0,0,1.563,1.562h.521V27.083a2.084,2.084,0,0,0,2.083,2.083V31.25A2.084,2.084,0,0,0,6.25,33.333H8.333a2.084,2.084,0,0,0,2.083-2.083V29.167h12.5V31.25A2.084,2.084,0,0,0,25,33.333h2.083a2.084,2.084,0,0,0,2.083-2.083V29.167h.417A1.643,1.643,0,0,0,31.25,27.5V16.667h.521A1.563,1.563,0,0,0,33.333,15.1V9.9A1.562,1.562,0,0,0,31.771,8.333ZM7.292,26.042a2.083,2.083,0,1,1,2.083-2.083A2.084,2.084,0,0,1,7.292,26.042ZM8.333,18.75A2.084,2.084,0,0,1,6.25,16.667V8.333A2.084,2.084,0,0,1,8.333,6.25H25a2.084,2.084,0,0,1,2.083,2.083v8.333A2.084,2.084,0,0,1,25,18.75Zm17.708,7.292a2.083,2.083,0,1,1,2.083-2.083A2.084,2.084,0,0,1,26.042,26.042Z" transform="translate(387.334 6060.335)" fill="#ac835e"/>
    <g id="Path_23" data-name="Path 23" transform="translate(378 6051)" fill="none">
      <path d="M0,0H52V52H0Z" stroke="none"/>
      <path d="M 1 1 L 1 51 L 51 51 L 51 1 L 1 1 M 0 0 L 52 0 L 52 52 L 0 52 L 0 0 Z" stroke="none" fill="#ac835e"/>
    </g>
  </g>
</svg>
