<svg xmlns="http://www.w3.org/2000/svg" width="52" height="52" viewBox="0 0 52 52">
  <g id="school_icon" data-name="school icon" transform="translate(-1168 -6143)">
    <g id="Layer_2" data-name="Layer 2" transform="translate(1180 6155)">
      <g id="Layer_1" data-name="Layer 1">
        <path id="Path_11" data-name="Path 11" d="M26.777,27.375H17.05v-8.5a.779.779,0,0,0-.792-.825c-.249-.011-.5,0-.748,0H11.182a.788.788,0,0,0-.872.827v8.5H.588A1.133,1.133,0,0,1,0,26.786V12.837c2.084,0,4.168,0,6.252,0a.625.625,0,0,0,.487-.206q2.972-2.981,5.952-5.95a.593.593,0,0,0,.2-.464c-.008-1.772,0-3.545,0-5.317a.8.8,0,0,1,.89-.89h4.916c.658,0,.955.3.957.968v2.3c0,.677-.3.971-.983.972H14.484c0,.685.007,1.335,0,1.984a.553.553,0,0,0,.188.44q2.963,2.95,5.912,5.915a.765.765,0,0,0,.6.256c1.951-.011,3.9-.006,5.852-.006h.333v.346c0,4.382-.005,8.764.007,13.147A.99.99,0,0,1,26.777,27.375ZM16.2,13.68a2.515,2.515,0,1,0-2.5,2.526A2.515,2.515,0,0,0,16.2,13.68Zm6.141,3.432c0,.293-.005.588,0,.88a.785.785,0,0,0,.725.781.746.746,0,0,0,.84-.675,17.825,17.825,0,0,0,0-1.944.756.756,0,0,0-.813-.685.8.8,0,0,0-.751.785c-.008.288,0,.573,0,.857Zm0,5.141c0,.293-.005.587,0,.88a.793.793,0,0,0,.743.8.747.747,0,0,0,.82-.672,17.271,17.271,0,0,0,0-1.97.739.739,0,0,0-.853-.656.785.785,0,0,0-.706.769c-.01.286,0,.571,0,.855ZM5.031,17.112c0-.286.006-.571,0-.857a.8.8,0,0,0-.751-.785.757.757,0,0,0-.813.684,17.662,17.662,0,0,0,0,1.944.746.746,0,0,0,.841.676.785.785,0,0,0,.723-.78c0-.293,0-.587,0-.88Zm0,5.16c0-.286,0-.571,0-.853a.785.785,0,0,0-.714-.785.743.743,0,0,0-.847.666,17.423,17.423,0,0,0,0,1.969.746.746,0,0,0,.8.664.793.793,0,0,0,.759-.779c.006-.3,0-.588,0-.881Zm15.454-5.141h0v-.907a.8.8,0,0,0-.785-.755.777.777,0,0,0-.785.748q-.024.906,0,1.813a.766.766,0,0,0,.781.747.775.775,0,0,0,.79-.767c.009-.293,0-.588,0-.882Zm-12.023.007h0c0-.293.008-.587,0-.88a.785.785,0,0,0-1.571.006q-.013.866,0,1.733a.786.786,0,1,0,1.571.021c.009-.295,0-.586,0-.882Zm0,5.156c0-.3.01-.6,0-.906a.785.785,0,0,0-1.571,0q-.017.893,0,1.785a.785.785,0,0,0,1.571,0c.009-.294,0-.588,0-.881Zm10.447-.025c0,.3-.01.6,0,.907a.785.785,0,0,0,1.571-.005q.019-.893,0-1.785a.763.763,0,0,0-.771-.755.77.77,0,0,0-.8.758c-.014.293,0,.586,0,.879Z" transform="translate(0 -0.01)" fill="#ac835e"/>
        <path id="Path_12" data-name="Path 12" d="M166.8,282.775c0-1.1-.008-2.208-.009-3.312V275.05h3.53c.006.083.018.151.018.22v7.373c0,.044-.006.089-.009.133Z" transform="translate(-154.88 -255.411)" fill="#ac835e"/>
        <path id="Path_13" data-name="Path 13" d="M0,120.735a.95.95,0,0,1,1.01-.616c2.377.011,4.755,0,7.132,0h.348c-.1.111-.15.177-.209.236-.742.743-1.481,1.491-2.234,2.224a.653.653,0,0,1-.411.171c-1.879.012-3.758.009-5.637.009Z" transform="translate(0 -111.543)" fill="#ac835e"/>
        <path id="Path_14" data-name="Path 14" d="M264.14,120.1h.362c2.379,0,4.757.011,7.135-.007a.894.894,0,0,1,1.014,1.028c-.033.523-.006,1.05-.006,1.619h-.286c-1.782,0-3.563,0-5.344-.008a.655.655,0,0,1-.411-.171c-.747-.727-1.48-1.468-2.214-2.2C264.322,120.29,264.263,120.226,264.14,120.1Z" transform="translate(-245.279 -111.515)" fill="#ac835e"/>
        <path id="Path_15" data-name="Path 15" d="M180.666,179.739a.913.913,0,1,1-.915-.9.9.9,0,0,1,.915.9Z" transform="translate(-166.07 -166.068)" fill="#ac835e"/>
      </g>
    </g>
    <g id="Path_26" data-name="Path 26" transform="translate(1168 6143)" fill="none">
      <path d="M0,0H52V52H0Z" stroke="none"/>
      <path d="M 1 1 L 1 51 L 51 51 L 51 1 L 1 1 M 0 0 L 52 0 L 52 52 L 0 52 L 0 0 Z" stroke="none" fill="#ac835e"/>
    </g>
  </g>
</svg>
