<svg xmlns="http://www.w3.org/2000/svg" width="52" height="52" viewBox="0 0 52 52"><g transform="translate(-1118 -8103)"><path d="M1,1V51H51V1H1M0,0H52V52H0Z" transform="translate(1118 8103)" fill="#ac835e"/><g transform="translate(1127.145 8114.431)"><path d="M33.86,29.89a2.53,2.53,0,1,1-2.53-2.53A2.53,2.53,0,0,1,33.86,29.89Z" transform="translate(-3.501 -2.801)" fill="#a8805c"/><path d="M12.98,29.89a2.53,2.53,0,1,1-2.53-2.53,2.53,2.53,0,0,1,2.53,2.53Z" transform="translate(-0.963 -2.801)" fill="#a8805c"/><path d="M29.727,21.4H9.975l.422-.684a1.266,1.266,0,0,0,.147-.982l-.412-1.585,18.331-.953a1.35,1.35,0,0,0,1.263-1.33V7.482a1.269,1.269,0,0,0-1.265-1.265H7.033l-.247-.951A1.265,1.265,0,0,0,5.561,4.32h-4.3a1.265,1.265,0,1,0,0,2.53H4.583L7.96,19.844,6.632,22a1.266,1.266,0,0,0,1.076,1.929H29.727a1.265,1.265,0,0,0,0-2.53Z" fill="#a8805c"/></g></g></svg>