<svg xmlns="http://www.w3.org/2000/svg" width="52" height="52" viewBox="0 0 52 52"><g transform="translate(-1178 -8103)"><path d="M15.393,6.146l-11.68,10.3a2.473,2.473,0,0,1-.292.179v9.885a.855.855,0,0,0,.855.855H26.511a.855.855,0,0,0,.855-.855V16.628a2.494,2.494,0,0,1-.281-.171ZM20.524,20.1a.428.428,0,0,1-.428.428H17.1v2.993a.428.428,0,0,1-.428.428H14.11a.428.428,0,0,1-.428-.428V20.524H10.69a.428.428,0,0,1-.428-.428V17.531a.428.428,0,0,1,.428-.428h2.993V14.11a.428.428,0,0,1,.428-.428h2.566a.428.428,0,0,1,.428.428V17.1H20.1a.428.428,0,0,1,.428.428ZM30.5,12.629,16.823.549a2.13,2.13,0,0,0-2.857,0L.283,12.629a.855.855,0,0,0-.065,1.208L1.363,15.11a.855.855,0,0,0,1.208.065L14.828,4.363a.855.855,0,0,1,1.132,0L28.216,15.174a.855.855,0,0,0,1.208-.065l1.144-1.273a.855.855,0,0,0-.065-1.207Z" transform="translate(1188.857 8115.699)" fill="#a8805c"/><path d="M1,1V51H51V1H1M0,0H52V52H0Z" transform="translate(1178 8103)" fill="#ac835e"/></g></svg>