<svg xmlns="http://www.w3.org/2000/svg" viewBox="0 0 93 83.33"><path d="M34.771,2.85a5.209,5.209,0,0,0-2.47.636,2.042,2.042,0,0,0-1.195,1.9,5.8,5.8,0,0,0,.875,2.691A21.979,21.979,0,0,0,34.3,11.406L47.378,27.722,60.618,11.088q1.755-2.22,3.03-3.8A4.653,4.653,0,0,0,64.923,4.9c0-1.37-1.435-2.061-4.3-2.061V0H93V2.85a24.436,24.436,0,0,0-5.66.477,5.781,5.781,0,0,0-3.11,2.061l-27.6,33.9L83.109,72.868q.637.954,1.515,2.22A14.844,14.844,0,0,0,86.78,77.54,15.333,15.333,0,0,0,89.57,79.6,6.758,6.758,0,0,0,93,80.47v2.85H60.939V80.47a2.246,2.246,0,0,0,2.55-2.532,4.493,4.493,0,0,0-1.035-2.532c-.7-.948-1.515-2.006-2.47-3.168L45.308,53.231,29.518,72.874c-.536.74-1.195,1.608-2,2.611a4.621,4.621,0,0,0-1.195,2.77q0,2.22,3.03,2.22v2.85H0v-2.85a13.638,13.638,0,0,0,4.705-.636,8.543,8.543,0,0,0,3.43-2.85l27.91-35.324L10.211,9.027A19.83,19.83,0,0,0,5.266,4.2,10.054,10.054,0,0,0,0,2.85V0H34.771Z" fill="#d5d5d5" opacity="0.1"/></svg>