<svg id="Layer_1" data-name="Layer 1" xmlns="http://www.w3.org/2000/svg" viewBox="0 0 731.81 135.97">
  <g id="Layer_1-2" data-name="Layer_1">
    <g id="_962589824" data-name=" 962589824">
      <g>
        <polygon points="202.33 49.6 256.83 49.6 256.83 3.97 283.19 3.97 283.19 133.87 256.83 133.87 256.83 73.89 202.33 73.89 202.33 133.87 175.94 133.87 175.94 3.97 202.33 3.97 202.33 49.6" fill="#ab3347"/>
        <path d="M570.26,111.48h43.25v22.39H520.8l50.53-60.46a96.84,96.84,0,0,0,12.16-17.63c2-3.91,3.66-8.42,3.66-12.84S586,34,582.67,30.75s-8-4.39-12.7-4.39a16.19,16.19,0,0,0-11.76,4.39c-3.37,3.24-4.85,7.32-5.22,11.91l-.22,2.89H527.34V42.4c0-11.33,3.66-21.31,12.19-28.94,8.93-7.93,20.35-10.68,32.06-10.68,11,0,21.94,2.49,30.33,10,8.1,7.19,11.39,16.78,11.39,27.4a53,53,0,0,1-6.26,24.27A103.89,103.89,0,0,1,597.44,79c-5.07,6.69-10.52,13.15-16,19.53Z" transform="translate(-0.01 0)" fill="#ab3347"/>
        <path d="M624,2.78h26.22V81c0,7.91,1.33,16.92,6.88,23,5.33,5.81,13.18,7.4,20.78,7.4s15.34-1.62,20.66-7.4c5.53-6,6.89-15,6.89-23V2.78h26.36v80c0,14.35-3,29.37-13.6,39.8S692.25,136,677.85,136s-29.67-2.89-40.27-13.32S624,97.11,624,82.82Z" transform="translate(-0.01 0)" fill="#ab3347"/>
        <path d="M368.67,98.47a35.59,35.59,0,0,1-10.86,26,38.67,38.67,0,0,1-12.24,8,38.08,38.08,0,0,1-28.69,0,36.74,36.74,0,0,1-12.07-8,35.55,35.55,0,0,1-8.22-11.87,35.92,35.92,0,0,1,8.22-40.11,37.71,37.71,0,0,1,12.07-8,38.58,38.58,0,0,1,28.77,0,37.88,37.88,0,0,1,12.16,8A35.8,35.8,0,0,1,368.67,98.47Zm-37.42,20.58a16.84,16.84,0,0,0,13.13-5.81q5.17-5.83,5.18-14.77a21.3,21.3,0,0,0-5.24-14.68,17.52,17.52,0,0,0-26.22,0c-3.46,3.88-5.19,8.81-5.19,14.71s1.7,10.91,5.11,14.77A16.89,16.89,0,0,0,331.25,119.05ZM461,133.36H443.13L439,103.06c-.25-2.12-.54-4.5-.79-7.14s-.46-5.47-.63-8.56A86.83,86.83,0,0,1,435,98.47c-.29.91-.51,1.62-.63,2.07l-9.52,32.82H412.09l-9.52-32.82c-.14-.45-.34-1.16-.6-2.07a78.42,78.42,0,0,1-2.63-11c-.17,2.66-.4,5.27-.65,7.88s-.57,5.18-.91,7.76l-4.11,30.3H375.92l10.8-70.07h18.91L416.2,99.43c.06.26.2.66.37,1.25a46.15,46.15,0,0,1,1.87,8.28,34.1,34.1,0,0,1,.71-4.14c.37-1.53.85-3.37,1.45-5.5l10.65-36h19Zm10.26,0V63.29h42.94v15.4H489.87V90.85H512.8v15H489.87v11.85h24.32v15.67Z" transform="translate(-0.01 0)" fill="#696b6c"/>
      </g>
      <g>
        <path d="M24.82,87.67V41.78H37.35V59.64H54V41.78H66.54v30A15.47,15.47,0,0,0,56.42,76,13.75,13.75,0,0,0,54,79.11V69H37.35V87.67Z" transform="translate(-0.01 0)" fill="#ab3347"/>
        <path d="M69,41.78H81.56V68.11c0,1.28.09,2.3.17,3.06,0,.17.06.37.09.54h0a14.15,14.15,0,0,0,.79,3,5.43,5.43,0,0,0,2.53,2.69,8.58,8.58,0,0,0,3.57.88h1.56a8.86,8.86,0,0,0,3.57-.88,5.27,5.27,0,0,0,2.49-2.69,12.61,12.61,0,0,0,.8-3h0c0-.17,0-.37.05-.54.09-.76.17-1.78.2-3.06V41.78h12.53V69a33.43,33.43,0,0,1-.94,8.19,14.72,14.72,0,0,1-3.06,6.13,14.06,14.06,0,0,1-6.43,4.19,28.72,28.72,0,0,1-7.74,1.33H87.18c-1.17,0-2.36-.17-3.55-.34a13.67,13.67,0,0,0-4.16-13,16.39,16.39,0,0,0-10.35-3.74C69.06,70.81,69,69.87,69,69Z" transform="translate(-0.01 0)" fill="#ab3347"/>
        <path d="M81.53,111.82H52.79l16.9-20A17.16,17.16,0,0,0,72,88.52a6.69,6.69,0,0,0,.74-2.78,4.44,4.44,0,0,0-1.25-3.23,4.5,4.5,0,0,0-3.28-1.25,4.6,4.6,0,0,0-3.72,1.56,7.05,7.05,0,0,0-1.3,4.48v.46h-9V87.5c0-4.25,1.24-7.62,3.74-10.06s5.89-3.69,10.23-3.69S75.64,74.83,78.13,77a10.89,10.89,0,0,1,3.77,8.68,12,12,0,0,1-1.19,5.16,23.5,23.5,0,0,1-3.91,5.49L70,103.8h11.5Z" transform="translate(-0.01 0)" fill="#696b6c"/>
        <path d="M68.07,0a67.35,67.35,0,0,1,66.61,67.32h-4.62A62.71,62.71,0,0,0,67.33,4.62V0Zm-.74,134.64A67.31,67.31,0,0,1,0,67.32H4.64A62.68,62.68,0,0,0,67.33,130Z" transform="translate(-0.01 0)" fill="#696b6c"/>
      </g>
    </g>
  </g>
</svg>
