<svg xmlns="http://www.w3.org/2000/svg" width="52" height="52" viewBox="0 0 52 52">
  <g id="park_icon" data-name="park icon" transform="translate(-1168 -6051)">
    <g id="Group_30" data-name="Group 30" transform="translate(907.664 -220.336)">
      <g id="Layer_1" data-name="Layer 1" transform="translate(269.334 6280.335)">
        <path id="Path_1" data-name="Path 1" d="M113,33.334c.02-1.008-.035-2.024.074-3.022a9.579,9.579,0,0,1,4.348-7.14,9.291,9.291,0,0,1,5.392-1.619c.618,0,1.237.007,1.855,0a1.952,1.952,0,1,0,0-3.9c-2.06-.01-4.121,0-6.182,0H114.9c-.28-1.3-.557-2.585-.837-3.891h3.818c0-.7,0-1.366-.007-2.034,0-.057-.093-.134-.16-.163a4.411,4.411,0,0,1-2.675-3.725,9.456,9.456,0,0,1,1.591-6.421,2.884,2.884,0,0,1,1.7-1.339,2.208,2.208,0,0,1,2.17.647,6.29,6.29,0,0,1,1.5,2.443,9.912,9.912,0,0,1,.75,4.059,4.935,4.935,0,0,1-1.962,3.9,8.645,8.645,0,0,1-.762.428c-.078.047-.184.137-.186.209-.015.649-.009,1.3-.009,1.964H129.6c0-.661.005-1.309-.006-1.957a.286.286,0,0,0-.15-.2,4.36,4.36,0,0,1-2.674-3.652,9.2,9.2,0,0,1,1.851-6.845,2.374,2.374,0,0,1,2.025-1.06,2.344,2.344,0,0,1,1.61.75,7.087,7.087,0,0,1,1.667,2.975,9.455,9.455,0,0,1,.55,3.478,4.968,4.968,0,0,1-1.978,3.924,2.55,2.55,0,0,1-.649.363.385.385,0,0,0-.3.443c.019.7.007,1.387.007,2.087.307.124.609.235.9.368a6.776,6.776,0,0,1-1.5,12.869,12.916,12.916,0,0,1-2.134.137,4,4,0,0,0-4.107,4.108v1.826Z" transform="translate(-103.174 0)" fill="#ac835e"/>
        <path id="Path_2" data-name="Path 2" d="M0,121.741c.087-.6.156-1.2.267-1.792a12.727,12.727,0,0,1,2.12-5.392,5.124,5.124,0,0,1,.853-.888,2.565,2.565,0,0,1,3.517.081,7.587,7.587,0,0,1,1.954,3.07,16.461,16.461,0,0,1,1.105,6.626,7.082,7.082,0,0,1-.511,2.463A4.124,4.124,0,0,1,6.2,128.5c-.221.046-.277.129-.274.338.01.9,0,1.8,0,2.713H3.971v-2.742c0-.158-.017-.261-.205-.3a4.492,4.492,0,0,1-3.634-4.02C.091,124.247.045,124,0,123.762Z" transform="translate(0 -103.184)" fill="#ac835e"/>
      </g>
    </g>
    <g id="Path_25" data-name="Path 25" transform="translate(1168 6051)" fill="none">
      <path d="M0,0H52V52H0Z" stroke="none"/>
      <path d="M 1 1 L 1 51 L 51 51 L 51 1 L 1 1 M 0 0 L 52 0 L 52 52 L 0 52 L 0 0 Z" stroke="none" fill="#ac835e"/>
    </g>
  </g>
</svg>
